<svg width="1000" height="1000" viewBox="0 0 1000 1000" fill="none" xmlns="http://www.w3.org/2000/svg">
<path d="M98.5838 595.117C82.0335 586.835 71 509.538 71 428.101C71 394.974 73.7584 360.467 76.5168 331.481C82.0335 296.974 87.5503 266.607 99.963 247.283C186.852 187.931 670.947 45.7605 895.755 43C921.959 51.2817 930.234 87.1693 928.855 132.719C928.855 227.959 906.788 327.34 855.758 417.059C795.074 422.58 720.598 435.003 643.363 451.566C622.675 603.398 610.263 785.597 610.263 864.273C593.712 902.922 379.938 967.795 319.254 956.753C305.462 883.597 286.153 726.244 286.153 541.285L98.5838 595.117ZM317.875 214.156C286.153 222.438 153.751 261.086 137.201 303.875C124.788 331.481 117.892 364.608 117.892 407.397C117.892 421.2 119.272 436.383 120.651 452.947C126.168 396.355 146.855 352.185 181.335 314.917C211.677 283.171 248.915 266.607 310.979 240.382C368.905 216.917 548.199 160.325 640.605 135.479C573.025 139.62 392.351 190.691 317.875 214.156ZM355.113 806.301C357.871 756.611 360.63 713.822 360.63 666.892C360.63 639.286 360.63 608.919 356.492 577.173C346.838 578.553 338.563 582.694 335.804 584.074C337.183 648.948 339.942 735.906 355.113 806.301Z" fill="#2563EB"/>
</svg>
